<?xml version="1.0" standalone="no"?>
<!DOCTYPE svg PUBLIC "-//W3C//DTD SVG 20010904//EN"
 "http://www.w3.org/TR/2001/REC-SVG-20010904/DTD/svg10.dtd">
<svg version="1.0" xmlns="http://www.w3.org/2000/svg"
 width="60.000000pt" height="60.000000pt" viewBox="0 0 60.000000 60.000000"
 preserveAspectRatio="xMidYMid meet">

<g transform="translate(0.000000,60.000000) scale(0.100000,-0.100000)"
fill="#F20E0E" stroke="none">
<path d="M192 530 c-116 -16 -118 -19 -110 -155 9 -135 63 -226 172 -290 l45
-26 38 20 c59 29 122 96 151 159 20 44 26 76 29 151 2 53 0 102 -5 109 -20 29
-208 47 -320 32z m138 -107 c0 -21 -3 -62 -6 -90 -5 -41 -11 -53 -24 -53 -13
0 -19 12 -24 53 -3 28 -6 69 -6 90 0 35 2 37 30 37 28 0 30 -2 30 -37z m-10
-209 c11 -12 10 -18 -3 -32 -16 -15 -18 -15 -34 0 -13 14 -14 20 -3 32 7 9 16
16 20 16 4 0 13 -7 20 -16z"/>
</g>
</svg>